# xmcd
#
# Track frame offsets: 
#        150
#        13877
#        31448
#        48744
#        64868
#        74185
#        90403
#
# Disc length: 1448 seconds
#
# Revision: 0
# Processed by: cddbd v1.5.2PL0 Copyright (c) Steve Scherf et al.
# Submitted via: ExactAudioCopy v0.99pb4
#
DISCID=6505a607
DTITLE=Puritan Rodeo - We All Share the Same Secret
DYEAR=2005
DGENRE=Bluegrass
TTITLE0=Olde English
TTITLE1=Last Round
TTITLE2=Dress Me Down
TTITLE3=Tiajuana Teardrops
TTITLE4=Cigarette Song
TTITLE5=Cold Comfort
TTITLE6=Bones of Cotton
EXTD=
EXTT0=
EXTT1=
EXTT2=
EXTT3=
EXTT4=
EXTT5=
EXTT6=
PLAYORDER=
